<svg width="988" height="433" viewBox="0 0 988 433" fill="none" xmlns="http://www.w3.org/2000/svg">
<g filter="url(#filter0_d_3_65)">
<path d="M887.382 175.258H312.806C310.366 175.258 308.026 176.227 306.301 177.952C304.576 179.677 303.607 182.017 303.607 184.457C303.607 186.896 304.576 189.236 306.301 190.961C308.026 192.686 310.366 193.655 312.806 193.655H329.081V413.721C329.081 416.161 330.05 418.5 331.775 420.225C333.5 421.951 335.84 422.92 338.279 422.92C340.719 422.92 343.059 421.951 344.784 420.225C346.509 418.5 347.478 416.161 347.478 413.721L347.618 193.655H808.774L851.294 413.721C851.294 416.161 852.263 418.5 853.988 420.225C855.713 421.951 858.053 422.92 860.493 422.92C862.932 422.92 865.272 421.951 866.997 420.225C868.722 418.5 869.692 416.161 869.692 413.721L872.368 193.655H887.382C889.821 193.655 892.161 192.686 893.886 190.961C895.611 189.236 896.581 186.896 896.581 184.457C896.581 182.017 895.611 179.677 893.886 177.952C892.161 176.227 889.821 175.258 887.382 175.258V175.258Z" fill="#CCCCCC"/>
<path d="M412.401 134.269V173.223H314.804C312.247 173.312 309.696 172.897 307.299 172C304.902 171.104 302.705 169.744 300.833 167.998C298.962 166.252 297.452 164.155 296.391 161.826C295.33 159.497 294.738 156.982 294.649 154.424C294.56 151.866 294.976 149.316 295.873 146.918C296.769 144.521 298.129 142.324 299.875 140.453C301.621 138.581 303.718 137.072 306.047 136.011C308.376 134.95 310.891 134.358 313.449 134.269C313.901 134.253 314.353 134.253 314.804 134.269L412.401 134.269Z" fill="#F2F2F2"/>
<path d="M414.798 172.924C414.798 173.321 414.64 173.702 414.359 173.983C414.078 174.264 413.697 174.422 413.3 174.422H313.066C307.625 174.418 302.408 172.254 298.561 168.405C294.715 164.556 292.554 159.337 292.554 153.896C292.554 148.455 294.715 143.236 298.561 139.387C302.408 135.538 307.625 133.374 313.066 133.37H413.3C413.497 133.369 413.692 133.408 413.874 133.483C414.057 133.558 414.222 133.668 414.362 133.807C414.501 133.946 414.612 134.112 414.688 134.294C414.763 134.476 414.802 134.671 414.802 134.868C414.802 135.065 414.763 135.26 414.688 135.442C414.612 135.624 414.501 135.79 414.362 135.929C414.222 136.068 414.057 136.178 413.874 136.253C413.692 136.328 413.497 136.367 413.3 136.366H313.066C308.422 136.373 303.97 138.223 300.688 141.51C297.406 144.797 295.563 149.251 295.563 153.896C295.563 158.54 297.406 162.995 300.688 166.282C303.97 169.569 308.422 171.419 313.066 171.426H413.3C413.697 171.426 414.078 171.584 414.359 171.865C414.64 172.146 414.798 172.527 414.798 172.924V172.924Z" fill="#6C63FF"/>
<path d="M412.401 143.258H307.522C307.443 143.259 307.367 143.228 307.311 143.172C307.254 143.116 307.222 143.041 307.221 142.961C307.22 142.882 307.251 142.806 307.307 142.749C307.362 142.692 307.438 142.66 307.517 142.659H412.401C412.48 142.66 412.555 142.692 412.61 142.748C412.666 142.804 412.697 142.88 412.697 142.959C412.697 143.038 412.666 143.113 412.61 143.169C412.555 143.226 412.48 143.257 412.401 143.258Z" fill="#CCCCCC"/>
<path d="M412.401 150.45H307.522C307.443 150.45 307.367 150.419 307.311 150.364C307.254 150.308 307.222 150.232 307.221 150.153C307.22 150.074 307.251 149.998 307.307 149.941C307.362 149.884 307.438 149.852 307.517 149.851H412.401C412.48 149.851 412.555 149.883 412.61 149.94C412.666 149.996 412.697 150.071 412.697 150.15C412.697 150.229 412.666 150.305 412.61 150.361C412.555 150.417 412.48 150.449 412.401 150.45Z" fill="#CCCCCC"/>
<path d="M412.401 157.642H307.522C307.443 157.642 307.367 157.611 307.311 157.555C307.254 157.5 307.222 157.424 307.221 157.345C307.22 157.265 307.251 157.189 307.307 157.132C307.362 157.076 307.438 157.043 307.517 157.042H412.401C412.48 157.043 412.555 157.075 412.61 157.131C412.666 157.187 412.697 157.263 412.697 157.342C412.697 157.421 412.666 157.497 412.61 157.553C412.555 157.609 412.48 157.641 412.401 157.642Z" fill="#CCCCCC"/>
<path d="M412.401 164.833H307.522C307.443 164.834 307.367 164.803 307.311 164.747C307.254 164.691 307.222 164.616 307.221 164.536C307.22 164.457 307.251 164.381 307.307 164.324C307.362 164.267 307.438 164.235 307.517 164.234H412.401C412.48 164.235 412.555 164.267 412.61 164.323C412.666 164.379 412.697 164.455 412.697 164.534C412.697 164.612 412.666 164.688 412.61 164.744C412.555 164.8 412.48 164.832 412.401 164.833Z" fill="#CCCCCC"/>
<path d="M394.003 93.2276V132.182H296.407C291.241 132.362 286.216 130.482 282.436 126.957C278.656 123.431 276.431 118.548 276.252 113.383C276.072 108.217 277.952 103.191 281.477 99.4115C285.003 95.6317 289.886 93.4073 295.052 93.2276C295.503 93.2119 295.955 93.2119 296.407 93.2276H394.003Z" fill="#F2F2F2"/>
<path d="M396.4 131.883C396.4 132.28 396.242 132.661 395.961 132.942C395.68 133.223 395.299 133.381 394.902 133.381H294.668C289.225 133.381 284.004 131.218 280.154 127.369C276.305 123.52 274.142 118.299 274.142 112.855C274.142 107.411 276.305 102.19 280.154 98.3406C284.004 94.4912 289.225 92.3286 294.668 92.3286H394.902C395.099 92.3286 395.294 92.3674 395.475 92.4427C395.657 92.518 395.822 92.6283 395.961 92.7674C396.101 92.9066 396.211 93.0717 396.286 93.2535C396.361 93.4353 396.4 93.6301 396.4 93.8269C396.4 94.0236 396.361 94.2184 396.286 94.4002C396.211 94.582 396.101 94.7472 395.961 94.8863C395.822 95.0254 395.657 95.1358 395.475 95.2111C395.294 95.2864 395.099 95.3251 394.902 95.3251H294.668C290.019 95.3251 285.561 97.172 282.273 100.459C278.986 103.747 277.139 108.206 277.139 112.855C277.139 117.504 278.986 121.963 282.273 125.25C285.561 128.538 290.019 130.384 294.668 130.384H394.902C395.299 130.385 395.68 130.542 395.961 130.823C396.242 131.104 396.4 131.485 396.4 131.883Z" fill="#3F3D56"/>
<path d="M394.003 102.217H289.125C289.045 102.218 288.969 102.187 288.913 102.131C288.856 102.075 288.824 102 288.823 101.92C288.823 101.841 288.853 101.765 288.909 101.708C288.964 101.651 289.04 101.619 289.119 101.618H394.003C394.082 101.619 394.157 101.651 394.213 101.707C394.268 101.763 394.3 101.839 394.3 101.918C394.3 101.996 394.268 102.072 394.213 102.128C394.157 102.184 394.082 102.216 394.003 102.217V102.217Z" fill="#CCCCCC"/>
<path d="M394.003 109.409H289.125C289.045 109.409 288.969 109.378 288.913 109.323C288.856 109.267 288.824 109.191 288.823 109.112C288.823 109.033 288.853 108.956 288.909 108.9C288.964 108.843 289.04 108.811 289.119 108.81H394.003C394.082 108.81 394.157 108.842 394.213 108.898C394.268 108.955 394.3 109.03 394.3 109.109C394.3 109.188 394.268 109.264 394.213 109.32C394.157 109.376 394.082 109.408 394.003 109.409Z" fill="#CCCCCC"/>
<path d="M394.003 116.6H289.125C289.045 116.601 288.969 116.57 288.913 116.514C288.856 116.459 288.824 116.383 288.823 116.304C288.823 116.224 288.853 116.148 288.909 116.091C288.964 116.035 289.04 116.002 289.119 116.001H394.003C394.082 116.002 394.157 116.034 394.213 116.09C394.268 116.146 394.3 116.222 394.3 116.301C394.3 116.38 394.268 116.456 394.213 116.512C394.157 116.568 394.082 116.6 394.003 116.6Z" fill="#CCCCCC"/>
<path d="M394.003 123.792H289.125C289.045 123.792 288.969 123.761 288.913 123.706C288.856 123.65 288.824 123.574 288.823 123.495C288.823 123.416 288.853 123.34 288.909 123.283C288.964 123.226 289.04 123.194 289.119 123.193H394.003C394.082 123.194 394.157 123.225 394.213 123.282C394.268 123.338 394.3 123.413 394.3 123.492C394.3 123.571 394.268 123.647 394.213 123.703C394.157 123.759 394.082 123.791 394.003 123.792V123.792Z" fill="#CCCCCC"/>
<path d="M507.537 313.102V279.137C507.537 277.635 506.941 276.195 505.879 275.134C504.817 274.072 503.378 273.476 501.876 273.476H373.092C371.591 273.476 370.151 274.072 369.089 275.134C368.028 276.195 367.431 277.635 367.431 279.137V313.102H507.537Z" fill="#CCCCCC"/>
<path d="M507.537 325.839H367.431V369.71H507.537V325.839Z" fill="#CCCCCC"/>
<path d="M367.431 382.447V416.412C367.431 417.914 368.028 419.353 369.089 420.415C370.151 421.477 371.591 422.073 373.092 422.073H501.876C503.378 422.073 504.817 421.477 505.879 420.415C506.941 419.353 507.537 417.914 507.537 416.412V382.447H367.431Z" fill="#CCCCCC"/>
<path d="M436.776 298.95C439.121 298.95 441.022 297.049 441.022 294.704C441.022 292.359 439.121 290.458 436.776 290.458C434.432 290.458 432.531 292.359 432.531 294.704C432.531 297.049 434.432 298.95 436.776 298.95Z" fill="white"/>
<path d="M436.776 355.558C439.121 355.558 441.022 353.657 441.022 351.312C441.022 348.968 439.121 347.067 436.776 347.067C434.432 347.067 432.531 348.968 432.531 351.312C432.531 353.657 434.432 355.558 436.776 355.558Z" fill="white"/>
<path d="M437.004 410.968C439.349 410.968 441.25 409.067 441.25 406.722C441.25 404.377 439.349 402.477 437.004 402.477C434.659 402.477 432.758 404.377 432.758 406.722C432.758 409.067 434.659 410.968 437.004 410.968Z" fill="white"/>
<path d="M491.653 234.749V273.704H394.056C388.893 273.88 383.871 271.998 380.094 268.473C376.317 264.948 374.094 260.067 373.915 254.904C373.735 249.741 375.613 244.717 379.135 240.938C382.658 237.158 387.537 234.932 392.7 234.749C393.152 234.733 393.604 234.733 394.056 234.749H491.653Z" fill="#F2F2F2"/>
<path d="M494.05 273.404C494.05 273.801 493.892 274.182 493.611 274.463C493.33 274.744 492.949 274.902 492.552 274.902H392.318C386.875 274.903 381.655 272.743 377.805 268.896C373.955 265.049 371.79 259.831 371.787 254.388C371.784 248.946 373.942 243.725 377.788 239.873C381.633 236.022 386.851 233.855 392.293 233.85H492.552C492.749 233.849 492.944 233.888 493.126 233.963C493.308 234.038 493.474 234.148 493.614 234.287C493.753 234.426 493.864 234.592 493.939 234.774C494.015 234.956 494.054 235.151 494.054 235.348C494.054 235.545 494.015 235.74 493.939 235.922C493.864 236.104 493.753 236.27 493.614 236.409C493.474 236.548 493.308 236.658 493.126 236.733C492.944 236.808 492.749 236.847 492.552 236.846H392.318C387.673 236.852 383.22 238.702 379.938 241.989C376.655 245.275 374.811 249.731 374.811 254.376C374.811 259.021 376.655 263.476 379.938 266.763C383.22 270.05 387.673 271.899 392.318 271.906H492.552C492.949 271.906 493.33 272.064 493.611 272.345C493.892 272.626 494.05 273.007 494.05 273.404V273.404Z" fill="#3F3D56"/>
<path d="M491.652 243.738H386.774C386.695 243.739 386.619 243.708 386.562 243.652C386.506 243.596 386.474 243.521 386.473 243.441C386.472 243.362 386.503 243.286 386.559 243.229C386.614 243.172 386.69 243.14 386.769 243.139H491.653C491.731 243.14 491.807 243.172 491.863 243.228C491.918 243.284 491.949 243.36 491.949 243.439C491.949 243.518 491.918 243.593 491.863 243.649C491.807 243.706 491.731 243.737 491.653 243.738H491.652Z" fill="#CCCCCC"/>
<path d="M491.652 250.93H386.774C386.695 250.93 386.619 250.899 386.562 250.844C386.506 250.788 386.474 250.712 386.473 250.633C386.472 250.554 386.503 250.478 386.559 250.421C386.614 250.364 386.69 250.332 386.769 250.331H491.653C491.731 250.331 491.807 250.363 491.863 250.42C491.918 250.476 491.949 250.551 491.949 250.63C491.949 250.709 491.918 250.785 491.863 250.841C491.807 250.897 491.731 250.929 491.653 250.93H491.652Z" fill="#CCCCCC"/>
<path d="M491.652 258.122H386.774C386.695 258.122 386.619 258.091 386.562 258.035C386.506 257.98 386.474 257.904 386.473 257.825C386.472 257.745 386.503 257.669 386.559 257.612C386.614 257.556 386.69 257.523 386.769 257.522H491.653C491.731 257.523 491.807 257.555 491.863 257.611C491.918 257.667 491.949 257.743 491.949 257.822C491.949 257.901 491.918 257.977 491.863 258.033C491.807 258.089 491.731 258.121 491.653 258.122H491.652Z" fill="#CCCCCC"/>
<path d="M491.652 265.313H386.774C386.695 265.314 386.619 265.283 386.562 265.227C386.506 265.171 386.474 265.096 386.473 265.016C386.472 264.937 386.503 264.861 386.559 264.804C386.614 264.747 386.69 264.715 386.769 264.714H491.653C491.731 264.715 491.807 264.747 491.863 264.803C491.918 264.859 491.949 264.935 491.949 265.014C491.949 265.093 491.918 265.168 491.863 265.224C491.807 265.281 491.731 265.312 491.653 265.313H491.652Z" fill="#CCCCCC"/>
<path d="M377.031 80.2324H332.565C332.143 80.2321 331.727 80.3289 331.348 80.5155L320.125 86.1338C319.756 86.2908 319.441 86.553 319.22 86.8877C318.998 87.2223 318.88 87.6148 318.88 88.016C318.88 88.4173 318.998 88.8098 319.22 89.1444C319.441 89.4791 319.756 89.7413 320.125 89.8982L331.348 95.5166C331.727 95.7032 332.143 95.8 332.565 95.7997H377.031C377.644 95.8351 378.246 95.6278 378.707 95.2225C379.168 94.8172 379.45 94.2466 379.494 93.6344V82.3976C379.45 81.7854 379.168 81.2149 378.707 80.8096C378.246 80.4043 377.644 80.197 377.031 80.2324V80.2324Z" fill="#3F3D56"/>
<path d="M379.494 82.3977V93.6344C379.451 94.2467 379.168 94.8173 378.707 95.2226C378.246 95.6278 377.644 95.8352 377.031 95.7998H368.172V80.2324H377.031C377.644 80.197 378.246 80.4043 378.707 80.8096C379.168 81.2149 379.451 81.7855 379.494 82.3977V82.3977Z" fill="#6C63FF"/>
</g>
<g filter="url(#filter1_d_3_65)">
<path d="M110.444 300.412C116.17 302.424 122.317 302.928 128.294 301.876C134.271 300.823 139.876 298.248 144.57 294.4C156.522 284.368 160.27 267.84 163.319 252.536C166.325 237.448 169.332 222.359 172.338 207.27L153.456 220.272C139.877 229.622 125.992 239.271 116.59 252.814C107.188 266.357 103.084 284.844 110.638 299.498" fill="#E6E6E6"/>
<path d="M112.058 355.216C110.147 341.295 108.182 327.196 109.523 313.126C110.713 300.63 114.525 288.425 122.287 278.418C126.406 273.117 131.419 268.574 137.1 264.995C138.581 264.06 139.944 266.408 138.469 267.339C128.64 273.551 121.038 282.724 116.758 293.535C112.031 305.558 111.272 318.663 112.087 331.435C112.579 339.158 113.623 346.831 114.675 354.494C114.758 354.841 114.707 355.206 114.531 355.516C114.355 355.826 114.068 356.057 113.728 356.163C113.381 356.257 113.011 356.21 112.698 356.032C112.386 355.855 112.156 355.562 112.058 355.216L112.058 355.216Z" fill="#F2F2F2"/>
<path d="M130.466 330.583C132.921 334.315 136.297 337.352 140.267 339.401C144.237 341.45 148.668 342.442 153.132 342.281C164.606 341.737 174.172 333.728 182.783 326.126L208.253 303.638L191.396 302.831C179.274 302.251 166.839 301.71 155.293 305.448C143.747 309.186 133.098 318.183 130.987 330.134" fill="#E6E6E6"/>
<path d="M106.657 363.218C115.856 346.942 126.525 328.853 145.59 323.071C150.891 321.469 156.449 320.895 161.965 321.38C163.704 321.53 163.27 324.21 161.534 324.061C152.288 323.293 143.059 325.735 135.401 330.975C128.033 335.99 122.296 342.963 117.44 350.358C114.465 354.887 111.801 359.608 109.136 364.324C108.285 365.83 105.796 364.743 106.657 363.218L106.657 363.218Z" fill="#F2F2F2"/>
<path d="M91.9186 380.35C92.2285 376.759 93.5179 373.321 95.6463 370.412C97.7747 367.503 100.661 365.234 103.989 363.852V354.442H119.771V364.148C122.937 365.598 125.661 367.862 127.666 370.708C129.671 373.554 130.885 376.881 131.185 380.35L134.896 423.488H88.2075L91.9186 380.35Z" fill="#F2F2F2"/>
</g>
<g filter="url(#filter2_d_3_65)">
<path d="M628.637 174.373L623.942 172.396L620.721 148.861H577.832L574.341 172.3L570.141 174.4C569.94 174.501 569.779 174.666 569.683 174.87C569.588 175.073 569.564 175.303 569.616 175.522C569.668 175.74 569.792 175.935 569.968 176.075C570.144 176.214 570.362 176.29 570.587 176.29H628.25C628.48 176.29 628.703 176.21 628.881 176.065C629.059 175.919 629.182 175.716 629.227 175.49C629.273 175.264 629.239 175.03 629.131 174.826C629.024 174.623 628.849 174.463 628.637 174.373V174.373Z" fill="#E6E6E6"/>
<path d="M704.853 151.992H494.17C493.065 151.99 492.006 151.549 491.225 150.767C490.444 149.984 490.006 148.924 490.006 147.818V118.109H709.018V147.818C709.018 148.924 708.579 149.984 707.799 150.766C707.018 151.549 705.959 151.99 704.853 151.992V151.992Z" fill="#CCCCCC"/>
<path d="M709.238 132.15H489.813V5.03168C489.815 3.69764 490.346 2.41868 491.289 1.47539C492.232 0.532095 493.511 0.0014927 494.845 0H704.206C705.54 0.00149268 706.819 0.532097 707.763 1.47539C708.706 2.41868 709.237 3.69763 709.238 5.03168L709.238 132.15Z" fill="#3F3D56"/>
<path d="M696.133 122.924H502.919C501.89 122.923 500.904 122.514 500.177 121.787C499.45 121.06 499.041 120.074 499.04 119.045V13.1054C499.041 12.0769 499.45 11.0909 500.177 10.3636C500.904 9.63634 501.89 9.22725 502.919 9.22607H696.133C697.161 9.22725 698.147 9.63634 698.874 10.3636C699.602 11.0909 700.011 12.0769 700.012 13.1054V119.045C700.011 120.074 699.602 121.06 698.874 121.787C698.147 122.514 697.161 122.923 696.133 122.924V122.924Z" fill="white"/>
</g>
<g filter="url(#filter3_d_3_65)">
<path d="M808.913 261.38H758.056C758.056 263.559 702.462 265.328 702.462 265.328C701.235 266.251 700.118 267.311 699.13 268.486C696.162 272.025 694.54 276.5 694.55 281.119V284.277C694.552 289.511 696.632 294.531 700.333 298.232C704.035 301.933 709.054 304.013 714.289 304.015H808.913C814.147 304.011 819.165 301.93 822.866 298.229C826.566 294.528 828.648 289.51 828.652 284.277V281.119C828.645 275.886 826.563 270.869 822.863 267.169C819.163 263.469 814.146 261.387 808.913 261.38V261.38Z" fill="#C8C8C8"/>
<path d="M771.93 303.231H751.402V421.721H771.93V303.231Z" fill="#C8C8C8"/>
<path d="M692.976 421C692.976 423.218 724.083 421.858 762.456 421.858C800.828 421.858 831.935 423.218 831.935 421C831.935 418.782 800.828 401.193 762.456 401.193C724.083 401.193 692.976 418.782 692.976 421Z" fill="#C8C8C8"/>
</g>
<g filter="url(#filter4_d_3_65)">
<path d="M645.243 160.305C646.49 159.153 647.975 158.288 649.593 157.772C651.211 157.255 652.922 157.1 654.607 157.317C656.291 157.533 657.907 158.117 659.342 159.026C660.776 159.935 661.994 161.147 662.909 162.577L689.044 157.931L695.741 173.124L658.742 179.167C656.237 180.546 653.313 180.957 650.525 180.324C647.737 179.691 645.278 178.057 643.614 175.732C641.95 173.407 641.197 170.552 641.497 167.709C641.798 164.866 643.13 162.231 645.243 160.305V160.305Z" fill="#FFB6B6"/>
<path d="M669.439 179.704L696.685 179.365L700.134 179.318L755.567 178.62C755.567 178.62 770.62 164.259 783.727 149.473L781.89 136.185C780.098 123.144 773.629 111.198 763.686 102.57C744.913 115.114 734.026 139.944 734.026 139.944L699.656 148.165L696.218 148.987L674.862 154.09L669.439 179.704Z" fill="#6C63FF"/>
<path d="M679.186 407.461L663.908 407.46L656.64 348.531L679.188 348.532L679.186 407.461Z" fill="#FFB6B6"/>
<path d="M683.082 422.27L633.82 422.268V421.645C633.82 416.56 635.84 411.683 639.436 408.088C643.032 404.492 647.909 402.472 652.994 402.471H652.995L683.083 402.473L683.082 422.27Z" fill="#2F2E41"/>
<path d="M634.031 407.461L618.753 407.46L611.485 348.531L634.033 348.532L634.031 407.461Z" fill="#FFB6B6"/>
<path d="M637.927 422.27L588.665 422.268V421.645C588.665 416.56 590.685 411.683 594.281 408.088C597.877 404.492 602.754 402.472 607.839 402.471H607.84L637.928 402.473L637.927 422.27Z" fill="#2F2E41"/>
<path d="M770.886 68.2002C785.557 68.2002 797.451 56.3071 797.451 41.6362C797.451 26.9653 785.557 15.0721 770.886 15.0721C756.216 15.0721 744.323 26.9653 744.323 41.6362C744.323 56.3071 756.216 68.2002 770.886 68.2002Z" fill="#FFB6B6"/>
<path d="M813.88 223.642C813.88 223.642 822.793 270.773 788.88 276.775C754.968 282.777 706.014 286.995 706.014 286.995L684.031 389.562L654.496 386.925C654.496 386.925 658.424 263.457 668.084 253.798C677.743 244.138 738.796 215.215 738.796 215.215L813.88 223.642Z" fill="#2F2E41"/>
<path d="M747.646 203.89L732.814 218.769C732.814 218.769 625.72 236.019 621.589 260.754C615.351 298.098 607.984 379.306 607.984 379.306L640.183 376.891L652.809 284.58L704.327 272.861L762.941 240.918L747.646 203.89Z" fill="#2F2E41"/>
<path d="M796.449 25.7795C793.826 20.832 790.495 10.9716 785.202 9.14291C782.263 8.16831 779.225 7.52115 776.143 7.21319L767.147 10.6733L772.043 6.86527C771.09 6.80848 770.137 6.76205 769.185 6.72599L763.115 9.06053L766.221 6.64521C760.562 6.58713 754.721 7.17553 750.336 10.6204C746.598 13.5572 742.894 24.6823 742.296 29.3979C741.655 33.9092 741.879 38.501 742.956 42.9285L744.493 44.3902C745.031 43.1572 745.435 41.8703 745.699 40.5513C746.25 38.0869 747.309 35.7643 748.807 33.7316C750.305 31.6988 752.211 30.0005 754.402 28.7449L754.485 28.6977C757.064 27.2467 760.192 27.3136 763.148 27.42L777.19 27.9253C780.568 28.0469 784.206 28.2606 786.84 30.3797C788.514 31.9429 789.83 33.8496 790.698 35.969C792.007 38.6104 794.564 48.5732 794.564 48.5732C794.564 48.5732 796.011 46.6926 796.705 48.0923C797.817 44.4403 798.493 40.6696 798.719 36.8588C798.94 33.031 798.158 29.2118 796.449 25.7795V25.7795Z" fill="#2F2E41"/>
<path d="M889.358 53.3018C887.663 53.4134 886.014 53.8952 884.526 54.7132C883.037 55.5312 881.747 56.6655 880.744 58.0363C879.742 59.4071 879.052 60.981 878.724 62.6472C878.396 64.3133 878.437 66.0311 878.844 67.6797L857.483 83.4369L863.892 98.7537L893.746 76.0777C896.47 75.2097 898.782 73.3725 900.242 70.9144C901.702 68.4562 902.209 65.5479 901.668 62.7404C901.127 59.933 899.575 57.4216 897.306 55.682C895.037 53.9424 892.209 53.0955 889.358 53.3018V53.3018Z" fill="#FFB6B6"/>
<path d="M885.92 85.4703L832.369 144.945C832.369 144.945 806.759 136.747 786.954 127.858L778.056 100.531C775.99 94.1909 775.108 87.5251 775.455 80.8662C802.911 73.5602 834.846 100.745 834.846 100.745L874.931 69.3461L885.92 85.4703Z" fill="#6C63FF"/>
<path d="M760.964 228.035C751.41 224.735 741.531 221.322 730.875 220.041L730.417 219.986L730.544 219.543C741.575 180.812 738.821 156.036 733.416 118.82C732.266 110.792 733.743 102.608 737.627 95.4892C741.51 88.3701 747.592 82.6977 754.964 79.3188L755.029 79.2892L785.464 77.3553L785.533 77.3511L807.668 83.861C810.852 84.8044 813.639 86.7658 815.601 89.4445C817.564 92.1233 818.595 95.3717 818.535 98.6921C818.295 110.931 818.803 124.596 819.342 139.063C820.55 171.519 821.799 205.08 814.711 226.855L814.674 226.969L814.58 227.043C808.064 232.35 799.902 235.217 791.499 235.151C781.564 235.151 771.425 231.649 760.964 228.035Z" fill="#6C63FF"/>
</g>
<g filter="url(#filter5_d_3_65)">
<path d="M981.912 424.837H5.41521C5.03988 424.837 4.67992 424.688 4.41451 424.422C4.14911 424.157 4 423.797 4 423.421C4 423.046 4.14911 422.686 4.41451 422.421C4.67992 422.155 5.03988 422.006 5.41521 422.006H981.912C982.287 422.006 982.647 422.155 982.912 422.421C983.178 422.686 983.327 423.046 983.327 423.421C983.327 423.797 983.178 424.157 982.912 424.422C982.647 424.688 982.287 424.837 981.912 424.837Z" fill="#CCCCCC"/>
</g>
<defs>
<filter id="filter0_d_3_65" x="270.142" y="80.2285" width="630.438" height="350.691" filterUnits="userSpaceOnUse" color-interpolation-filters="sRGB">
<feFlood flood-opacity="0" result="BackgroundImageFix"/>
<feColorMatrix in="SourceAlpha" type="matrix" values="0 0 0 0 0 0 0 0 0 0 0 0 0 0 0 0 0 0 127 0" result="hardAlpha"/>
<feOffset dy="4"/>
<feGaussianBlur stdDeviation="2"/>
<feComposite in2="hardAlpha" operator="out"/>
<feColorMatrix type="matrix" values="0 0 0 0 0 0 0 0 0 0 0 0 0 0 0 0 0 0 0.25 0"/>
<feBlend mode="normal" in2="BackgroundImageFix" result="effect1_dropShadow_3_65"/>
<feBlend mode="normal" in="SourceGraphic" in2="effect1_dropShadow_3_65" result="shape"/>
</filter>
<filter id="filter1_d_3_65" x="84.2075" y="207.27" width="128.045" height="224.218" filterUnits="userSpaceOnUse" color-interpolation-filters="sRGB">
<feFlood flood-opacity="0" result="BackgroundImageFix"/>
<feColorMatrix in="SourceAlpha" type="matrix" values="0 0 0 0 0 0 0 0 0 0 0 0 0 0 0 0 0 0 127 0" result="hardAlpha"/>
<feOffset dy="4"/>
<feGaussianBlur stdDeviation="2"/>
<feComposite in2="hardAlpha" operator="out"/>
<feColorMatrix type="matrix" values="0 0 0 0 0 0 0 0 0 0 0 0 0 0 0 0 0 0 0.25 0"/>
<feBlend mode="normal" in2="BackgroundImageFix" result="effect1_dropShadow_3_65"/>
<feBlend mode="normal" in="SourceGraphic" in2="effect1_dropShadow_3_65" result="shape"/>
</filter>
<filter id="filter2_d_3_65" x="485.813" y="0" width="227.425" height="184.29" filterUnits="userSpaceOnUse" color-interpolation-filters="sRGB">
<feFlood flood-opacity="0" result="BackgroundImageFix"/>
<feColorMatrix in="SourceAlpha" type="matrix" values="0 0 0 0 0 0 0 0 0 0 0 0 0 0 0 0 0 0 127 0" result="hardAlpha"/>
<feOffset dy="4"/>
<feGaussianBlur stdDeviation="2"/>
<feComposite in2="hardAlpha" operator="out"/>
<feColorMatrix type="matrix" values="0 0 0 0 0 0 0 0 0 0 0 0 0 0 0 0 0 0 0.25 0"/>
<feBlend mode="normal" in2="BackgroundImageFix" result="effect1_dropShadow_3_65"/>
<feBlend mode="normal" in="SourceGraphic" in2="effect1_dropShadow_3_65" result="shape"/>
</filter>
<filter id="filter3_d_3_65" x="688.976" y="261.38" width="146.96" height="168.89" filterUnits="userSpaceOnUse" color-interpolation-filters="sRGB">
<feFlood flood-opacity="0" result="BackgroundImageFix"/>
<feColorMatrix in="SourceAlpha" type="matrix" values="0 0 0 0 0 0 0 0 0 0 0 0 0 0 0 0 0 0 127 0" result="hardAlpha"/>
<feOffset dy="4"/>
<feGaussianBlur stdDeviation="2"/>
<feComposite in2="hardAlpha" operator="out"/>
<feColorMatrix type="matrix" values="0 0 0 0 0 0 0 0 0 0 0 0 0 0 0 0 0 0 0.25 0"/>
<feBlend mode="normal" in2="BackgroundImageFix" result="effect1_dropShadow_3_65"/>
<feBlend mode="normal" in="SourceGraphic" in2="effect1_dropShadow_3_65" result="shape"/>
</filter>
<filter id="filter4_d_3_65" x="584.665" y="6.64148" width="321.215" height="423.629" filterUnits="userSpaceOnUse" color-interpolation-filters="sRGB">
<feFlood flood-opacity="0" result="BackgroundImageFix"/>
<feColorMatrix in="SourceAlpha" type="matrix" values="0 0 0 0 0 0 0 0 0 0 0 0 0 0 0 0 0 0 127 0" result="hardAlpha"/>
<feOffset dy="4"/>
<feGaussianBlur stdDeviation="2"/>
<feComposite in2="hardAlpha" operator="out"/>
<feColorMatrix type="matrix" values="0 0 0 0 0 0 0 0 0 0 0 0 0 0 0 0 0 0 0.25 0"/>
<feBlend mode="normal" in2="BackgroundImageFix" result="effect1_dropShadow_3_65"/>
<feBlend mode="normal" in="SourceGraphic" in2="effect1_dropShadow_3_65" result="shape"/>
</filter>
<filter id="filter5_d_3_65" x="0" y="422.006" width="987.327" height="10.8304" filterUnits="userSpaceOnUse" color-interpolation-filters="sRGB">
<feFlood flood-opacity="0" result="BackgroundImageFix"/>
<feColorMatrix in="SourceAlpha" type="matrix" values="0 0 0 0 0 0 0 0 0 0 0 0 0 0 0 0 0 0 127 0" result="hardAlpha"/>
<feOffset dy="4"/>
<feGaussianBlur stdDeviation="2"/>
<feComposite in2="hardAlpha" operator="out"/>
<feColorMatrix type="matrix" values="0 0 0 0 0 0 0 0 0 0 0 0 0 0 0 0 0 0 0.25 0"/>
<feBlend mode="normal" in2="BackgroundImageFix" result="effect1_dropShadow_3_65"/>
<feBlend mode="normal" in="SourceGraphic" in2="effect1_dropShadow_3_65" result="shape"/>
</filter>
</defs>
</svg>
